<svg width="843.502" height="75.902" viewBox="0 0 843.502 75.902" xmlns="http://www.w3.org/2000/svg"><g id="svgGroup" stroke-linecap="round" fill-rule="evenodd" font-size="9pt" stroke="#ffffff" stroke-width="0.25mm" fill="#ffffff" style="stroke:#ffffff;stroke-width:0.25mm;fill:#ffffff"><path d="M 92.102 31.501 L 92.102 73.801 L 70.202 73.801 L 70.202 66.001 Q 67.302 68.701 63.802 70.601 A 42.595 42.595 0 0 1 51.543 74.886 Q 46.296 75.901 40.302 75.901 A 51.683 51.683 0 0 1 27.187 74.313 A 39.566 39.566 0 0 1 12.802 67.301 A 37.845 37.845 0 0 1 9.179 64.093 Q 7.108 61.995 5.702 59.801 A 31.792 31.792 0 0 1 0.738 47.607 A 43.747 43.747 0 0 1 0.002 39.401 A 39.068 39.068 0 0 1 2.334 25.7 A 35.034 35.034 0 0 1 9.402 14.201 A 41.624 41.624 0 0 1 27.757 2.916 Q 34.534 0.775 42.761 0.206 A 89.077 89.077 0 0 1 48.902 0.001 Q 61.716 0.001 71.051 3.175 A 42.972 42.972 0 0 1 76.002 5.201 Q 80.402 7.401 83.302 10.301 Q 86.29 12.99 87.988 15.778 A 18.525 18.525 0 0 1 88.002 15.801 L 89.802 19.401 L 64.802 22.101 A 18.817 18.817 0 0 0 53.532 16.219 A 27.038 27.038 0 0 0 49.302 15.901 Q 40.802 15.901 35.102 20.001 Q 31.943 22.324 29.259 26.459 A 36.14 36.14 0 0 0 28.852 27.101 A 18.052 18.052 0 0 0 26.649 32.574 Q 26.123 34.842 26.025 37.469 A 32.848 32.848 0 0 0 26.002 38.701 A 25.67 25.67 0 0 0 26.718 44.928 A 18.45 18.45 0 0 0 30.702 52.701 A 19.052 19.052 0 0 0 41.659 59.173 A 29.325 29.325 0 0 0 47.902 59.801 Q 55.602 59.801 60.902 56.451 A 28.531 28.531 0 0 0 63.863 54.323 Q 65.276 53.152 66.276 51.942 A 11.625 11.625 0 0 0 67.902 49.401 A 0.339 0.339 0 0 1 67.91 49.349 Q 67.965 49.076 68.402 47.501 L 50.002 47.501 L 50.002 31.501 L 92.102 31.501 Z M 211.002 57.701 L 234.802 56.601 A 11.43 11.43 0 0 0 235.181 57.744 Q 235.577 58.745 236.102 59.401 Q 239.202 62.901 247.002 62.901 Q 251.511 62.901 253.869 61.691 A 5.815 5.815 0 0 0 254.802 61.101 Q 256.288 60.011 256.302 58.234 A 4.294 4.294 0 0 0 256.302 58.201 A 2.734 2.734 0 0 0 256.081 57.083 Q 255.766 56.371 255.002 55.901 A 4.537 4.537 0 0 0 254.465 55.62 Q 253.87 55.351 252.959 55.083 A 23.679 23.679 0 0 0 252.302 54.901 A 32.369 32.369 0 0 0 249.281 54.253 A 28.836 28.836 0 0 0 248.602 54.151 Q 247.224 53.959 244.908 53.621 A 1368.114 1368.114 0 0 1 243.402 53.401 Q 240.002 52.901 237.902 52.501 A 119.415 119.415 0 0 1 233.552 51.709 Q 230.115 51.013 227.302 50.201 A 45.281 45.281 0 0 1 223.458 49.008 Q 218.632 47.251 216.502 44.901 A 10.703 10.703 0 0 1 213.924 40.002 Q 213.528 38.372 213.504 36.457 A 19.872 19.872 0 0 1 213.502 36.201 A 13.143 13.143 0 0 1 218.845 25.49 A 23.237 23.237 0 0 1 223.202 22.801 A 34.64 34.64 0 0 1 229.712 20.637 Q 236.243 19.106 245.337 19.008 A 116.613 116.613 0 0 1 246.602 19.001 A 75.602 75.602 0 0 1 256.552 19.607 Q 267.922 21.122 273.984 26.422 A 19.537 19.537 0 0 1 276.202 28.701 A 22.978 22.978 0 0 1 278.265 31.615 A 19.176 19.176 0 0 1 279.202 33.401 Q 279.602 34.401 280.202 36.701 L 256.802 37.701 A 6.208 6.208 0 0 0 256.499 36.715 A 5.083 5.083 0 0 0 256.202 36.101 A 7.213 7.213 0 0 0 252.871 33.191 Q 249.959 31.844 245.102 31.901 Q 242.439 31.901 240.512 32.466 A 9.092 9.092 0 0 0 239.002 33.051 Q 237.547 33.778 237.012 34.847 A 2.983 2.983 0 0 0 236.702 36.201 A 2.415 2.415 0 0 0 237.495 38.021 A 3.277 3.277 0 0 0 237.702 38.201 A 4.324 4.324 0 0 0 238.891 38.838 Q 241.932 40.023 250.955 41.03 A 203.12 203.12 0 0 0 251.602 41.101 Q 259.332 42.092 263.134 42.69 A 132.046 132.046 0 0 1 263.202 42.701 Q 270.67 44.177 273.538 45.427 A 8.63 8.63 0 0 1 274.302 45.801 A 12.087 12.087 0 0 1 278.131 49.098 Q 279.895 51.48 280.226 54.746 A 15.427 15.427 0 0 1 280.302 56.301 A 13.829 13.829 0 0 1 277.194 65.019 A 19.214 19.214 0 0 1 275.502 66.901 A 26.324 26.324 0 0 1 266.439 72.469 Q 258.598 75.455 246.961 75.5 A 92.31 92.31 0 0 1 246.602 75.501 A 95.004 95.004 0 0 1 236.558 74.995 Q 231.513 74.458 227.089 73.351 A 58.493 58.493 0 0 1 226.502 73.201 A 39.843 39.843 0 0 1 221.932 71.754 Q 219.716 70.891 217.989 69.836 A 15.242 15.242 0 0 1 214.702 67.201 A 12.643 12.643 0 0 1 212.023 62.713 Q 211.231 60.489 211.002 57.701 Z M 522.202 3.201 L 522.202 19.101 L 478.302 19.101 L 478.302 32.601 L 518.602 32.601 L 518.602 48.401 L 478.302 48.401 L 478.302 73.801 L 453.002 73.801 L 453.002 3.201 L 522.202 3.201 Z M 207.302 73.801 L 182.802 73.801 A 47.411 47.411 0 0 1 182.347 71.724 Q 182.027 70.076 181.902 68.701 A 94.502 94.502 0 0 1 171.645 72.592 Q 162.905 75.301 155.602 75.301 A 45.067 45.067 0 0 1 149.24 74.883 Q 142.054 73.855 138.002 70.301 A 17.689 17.689 0 0 1 134.259 65.817 A 14.851 14.851 0 0 1 132.302 58.301 A 16.719 16.719 0 0 1 132.895 53.755 A 13.552 13.552 0 0 1 135.002 49.401 Q 136.902 46.701 139.902 45.151 Q 142.685 43.713 144.521 43.179 A 11.291 11.291 0 0 1 144.802 43.101 A 38.257 38.257 0 0 1 149.429 42.098 Q 159.393 40.47 181.502 40.001 Q 181.502 38.163 181.028 36.886 A 4.83 4.83 0 0 0 180.402 35.701 A 6.615 6.615 0 0 0 177.921 33.814 Q 175.099 32.501 170.102 32.501 Q 163.471 32.501 160.151 34.129 A 6.91 6.91 0 0 0 158.202 35.501 Q 157.784 35.918 157.367 36.894 A 11.798 11.798 0 0 0 157.202 37.301 L 134.502 37.301 A 25.324 25.324 0 0 1 136.268 31.349 A 16.413 16.413 0 0 1 143.802 23.201 Q 150.984 19.522 165.145 19.066 A 129.023 129.023 0 0 1 169.302 19.001 Q 177.618 19.001 183.947 19.785 A 66.904 66.904 0 0 1 188.502 20.501 Q 195.85 22.094 199.279 24.942 A 10.434 10.434 0 0 1 200.102 25.701 A 13.608 13.608 0 0 1 203.393 31.225 Q 204.087 33.361 204.304 35.952 A 29.388 29.388 0 0 1 204.402 38.401 L 204.402 66.101 Q 204.402 68.687 204.801 70.137 A 4.984 4.984 0 0 0 205.052 70.851 A 7.235 7.235 0 0 0 205.798 72.123 Q 206.211 72.694 206.767 73.273 A 14.363 14.363 0 0 0 207.302 73.801 Z M 631.802 46.001 L 631.802 73.801 L 608.102 73.801 L 608.102 47.601 Q 608.102 44.965 607.524 42.979 A 10.944 10.944 0 0 0 607.302 42.301 A 11.195 11.195 0 0 0 604.86 38.097 Q 602.817 35.95 599.566 35.245 A 16.358 16.358 0 0 0 596.102 34.901 A 16.861 16.861 0 0 0 593.026 35.163 Q 591.324 35.479 589.997 36.177 A 7.984 7.984 0 0 0 588.002 37.651 Q 585.302 40.401 584.402 43.701 A 10.324 10.324 0 0 0 584.117 44.999 Q 583.902 46.363 583.902 48.201 L 583.902 73.801 L 560.102 73.801 L 560.102 20.801 L 583.902 20.801 L 583.902 27.501 Q 586.597 25.575 587.996 24.762 A 15.935 15.935 0 0 1 588.102 24.701 A 36.283 36.283 0 0 1 605.449 19.825 A 43.278 43.278 0 0 1 606.902 19.801 Q 616.902 19.801 623.002 23.401 Q 625.902 25.301 627.002 26.501 Q 629.202 28.801 630.302 31.701 Q 631.802 35.601 631.802 46.001 Z M 795.202 50.601 L 742.602 50.601 A 13.494 13.494 0 0 0 743.062 52.357 A 18 18 0 0 0 743.702 54.001 Q 745.202 57.301 748.302 59.201 A 29.276 29.276 0 0 0 750.05 60.197 Q 751.803 61.111 753.141 61.433 A 7.364 7.364 0 0 0 753.452 61.501 A 22.241 22.241 0 0 0 755.679 61.824 A 17.786 17.786 0 0 0 757.302 61.901 Q 763.102 61.901 767.002 59.001 A 12.581 12.581 0 0 0 767.848 58.349 Q 768.49 57.813 769.202 57.101 L 793.802 58.301 A 25.255 25.255 0 0 1 787.415 66.329 A 29.799 29.799 0 0 1 786.202 67.301 A 14.986 14.986 0 0 1 784.678 68.476 Q 783.844 69.043 782.821 69.611 A 35.13 35.13 0 0 1 781.102 70.501 Q 771.102 75.301 756.202 75.301 A 67.571 67.571 0 0 1 744.454 74.352 Q 730.746 71.926 723.702 63.301 Q 718.202 56.601 718.202 47.001 Q 718.202 37.801 723.502 31.101 Q 725.802 28.301 728.902 26.101 A 34.086 34.086 0 0 1 738.873 21.451 Q 746.392 19.244 756.402 19.301 A 71.257 71.257 0 0 1 767.57 20.115 Q 780.658 22.198 787.702 29.601 Q 792.402 34.601 794.102 40.901 A 22.211 22.211 0 0 1 794.575 43.133 Q 795.061 46.101 795.202 50.601 Z M 710.702 3.201 L 710.702 73.801 L 687.102 73.801 L 687.102 68.601 Q 685.179 70.062 683.966 70.755 A 8.775 8.775 0 0 1 683.302 71.101 A 32.554 32.554 0 0 1 670.143 74.886 A 39.53 39.53 0 0 1 667.102 75.001 A 32.54 32.54 0 0 1 657.197 73.546 A 27.628 27.628 0 0 1 648.302 68.801 Q 644.502 65.501 642.302 61.101 Q 639.002 54.801 639.002 47.501 A 30.752 30.752 0 0 1 640.804 36.871 A 28.375 28.375 0 0 1 643.502 31.401 Q 645.302 28.501 647.852 26.051 A 15.982 15.982 0 0 1 649.93 24.39 Q 652.224 22.827 655.702 21.351 A 28.375 28.375 0 0 1 663.941 19.279 A 34.854 34.854 0 0 1 667.502 19.101 A 32.502 32.502 0 0 1 673.459 19.628 A 27.487 27.487 0 0 1 676.752 20.451 Q 680.022 21.489 681.782 22.38 A 10.083 10.083 0 0 1 682.702 22.901 Q 684.402 24.001 687.102 26.101 L 687.102 3.201 L 710.702 3.201 Z M 320.702 58.801 L 320.702 73.801 L 305.402 73.801 Q 301.481 73.801 298.344 73.452 A 44.845 44.845 0 0 1 297.902 73.401 A 15.692 15.692 0 0 1 294.76 72.648 Q 292.808 71.945 291.412 70.731 A 8.985 8.985 0 0 1 290.402 69.701 Q 288.398 67.314 288.398 62.012 A 29.169 29.169 0 0 1 288.402 61.501 L 288.902 36.701 L 281.402 36.701 L 281.402 23.001 L 289.002 23.001 L 289.302 5.101 L 312.002 5.101 L 312.002 23.001 L 320.702 23.001 L 320.702 36.701 L 312.102 36.701 L 312.102 54.201 A 6.981 6.981 0 0 0 312.194 55.36 A 5.588 5.588 0 0 0 312.402 56.201 Q 313.202 58.801 317.902 58.801 L 320.702 58.801 Z M 386.902 70.901 A 36.929 36.929 0 0 0 391.894 68.11 Q 403.002 60.657 403.002 47.201 A 29.948 29.948 0 0 0 402.959 45.589 A 23.184 23.184 0 0 0 397.202 31.101 A 28.988 28.988 0 0 0 386.994 23.586 A 40.486 40.486 0 0 0 378.002 20.801 Q 374.283 20.057 370.028 19.708 A 97.204 97.204 0 0 0 362.102 19.401 A 76.22 76.22 0 0 0 357.439 19.626 Q 344.33 20.672 335.802 26.301 A 30.627 30.627 0 0 0 334.582 27.149 Q 328.856 31.346 326.415 37.361 A 26.213 26.213 0 0 0 324.602 47.301 A 30.032 30.032 0 0 0 324.792 50.72 A 22.754 22.754 0 0 0 330.002 63.101 A 19.109 19.109 0 0 0 330.348 63.521 Q 331.588 64.983 333.24 66.349 A 32.044 32.044 0 0 0 336.502 68.701 A 36.259 36.259 0 0 0 342.138 71.556 Q 351.148 75.201 363.802 75.201 A 81.328 81.328 0 0 0 364.578 75.197 Q 377.389 75.075 386.902 70.901 Z M 843.502 19.801 L 843.502 40.701 Q 839.844 40.316 838.039 40.301 A 17.232 17.232 0 0 0 837.902 40.301 A 22.962 22.962 0 0 0 837.002 40.32 Q 835.915 40.363 834.402 40.501 A 15.879 15.879 0 0 0 831.312 41.027 Q 827.471 42.116 826.002 45.201 A 7.342 7.342 0 0 0 825.454 46.734 Q 825.261 47.515 825.174 48.449 A 17.817 17.817 0 0 0 825.102 50.101 L 825.102 73.801 L 801.602 73.801 L 801.602 20.801 L 825.202 20.801 L 825.202 29.201 A 19.664 19.664 0 0 1 835.107 21.287 A 26.499 26.499 0 0 1 837.902 20.401 A 17.039 17.039 0 0 1 839.351 20.127 Q 840.983 19.886 843.195 19.81 A 54.306 54.306 0 0 1 843.502 19.801 Z M 125.602 3.201 L 125.602 73.801 L 101.902 73.801 L 101.902 3.201 L 125.602 3.201 Z M 550.202 20.801 L 550.202 73.801 L 526.802 73.801 L 526.802 20.801 L 550.202 20.801 Z M 444.002 33.501 L 444.002 51.001 L 408.302 51.001 L 408.302 33.501 L 444.002 33.501 Z M 378.602 47.001 A 17.997 17.997 0 0 0 378.332 43.796 Q 378.001 41.967 377.264 40.473 A 10.6 10.6 0 0 0 376.902 39.801 Q 373.075 33.267 364.109 33.267 A 26.18 26.18 0 0 0 362.802 33.301 Q 360.179 33.46 358.187 33.998 A 14.569 14.569 0 0 0 357.202 34.301 A 12.527 12.527 0 0 0 353.326 36.569 A 11.442 11.442 0 0 0 351.102 39.201 Q 349.002 42.601 349.002 47.001 Q 349.002 52.801 352.202 56.301 A 13.099 13.099 0 0 0 358.647 60.199 Q 360.782 60.791 363.34 60.884 A 26.616 26.616 0 0 0 364.302 60.901 Q 368.502 60.901 372.152 58.901 Q 375.802 56.901 377.502 53.301 A 13.022 13.022 0 0 0 378.292 50.622 Q 378.534 49.328 378.587 47.846 A 23.634 23.634 0 0 0 378.602 47.001 Z M 687.102 47.001 A 17.066 17.066 0 0 0 686.949 44.653 Q 686.778 43.423 686.415 42.384 A 9.328 9.328 0 0 0 686.102 41.601 Q 683.102 35.101 675.002 35.101 A 16.178 16.178 0 0 0 671.111 35.544 A 11.406 11.406 0 0 0 666.002 38.251 A 10.327 10.327 0 0 0 662.902 43.892 A 15.318 15.318 0 0 0 662.602 47.001 A 15.51 15.51 0 0 0 662.884 50.019 A 12.484 12.484 0 0 0 663.602 52.401 A 10.928 10.928 0 0 0 666.052 56.1 A 10.478 10.478 0 0 0 668.002 57.601 Q 671.002 59.401 674.802 59.401 A 13.602 13.602 0 0 0 679.083 58.755 A 11.312 11.312 0 0 0 683.652 55.901 A 11.85 11.85 0 0 0 687.048 48.321 A 15.858 15.858 0 0 0 687.102 47.001 Z M 550.202 3.201 L 550.202 15.601 L 526.702 15.601 L 526.702 3.201 L 550.202 3.201 Z M 176.902 49.751 A 853.108 853.108 0 0 0 178.32 49.683 Q 180.5 49.577 181.802 49.501 Q 181.002 53.501 179.302 55.401 A 7.206 7.206 0 0 1 179.119 55.606 Q 178.309 56.481 176.926 57.432 A 26.883 26.883 0 0 1 175.402 58.401 Q 170.102 61.301 164.402 61.301 Q 158.802 61.301 156.902 58.301 A 5.068 5.068 0 0 1 156.738 58.024 A 4.141 4.141 0 0 1 156.202 56.001 A 5.171 5.171 0 0 1 156.262 55.195 A 3.692 3.692 0 0 1 157.302 53.101 Q 158.63 51.46 163.254 50.735 A 40.475 40.475 0 0 1 166.102 50.401 Q 168.402 50.201 171.052 50.051 Q 173.702 49.901 176.902 49.751 Z M 743.402 41.401 L 770.402 41.401 A 12.718 12.718 0 0 0 766.959 36.139 Q 763.321 32.901 756.902 32.901 A 19.885 19.885 0 0 0 752.477 33.362 Q 749.459 34.051 747.286 35.768 A 11.667 11.667 0 0 0 745.602 37.401 Q 744.863 38.341 744.124 39.824 A 27.946 27.946 0 0 0 743.402 41.401 Z" vector-effect="non-scaling-stroke"/></g></svg>